<svg width="78" height="62" fill="none" xmlns="http://www.w3.org/2000/svg"><path fill-rule="evenodd" clip-rule="evenodd" d="M0 46a16 16 0 1132 0 16 16 0 01-32 0zm11 5a7 7 0 1010-10 7 7 0 00-10 10zm50-5a8 8 0 100 16 8 8 0 000-16zm-5 8a5 5 0 1010 0 5 5 0 00-10 0z" fill="#fff"/><path fill-rule="evenodd" clip-rule="evenodd" d="M75 31l3 19s1 3-3 3h-2a12 12 0 00-24 0H38A23 23 0 003 26c0-3 0-13 2-20l4-3 25-3s2 0 3 2l10 22 12 1v-5h4v-6h3v12l6 1s3 0 3 4zM16 20h7V6h-7v14zm17 0h-7V6h7v14zm16 16h4v-7h-4v7zm11 0h-4v-7h4v7zm3 0h4v-7h-4v7z" fill="#fff"/></svg>